<?xml version="1.0" encoding="UTF-8"?>
<!DOCTYPE svg PUBLIC "-//W3C//DTD SVG 1.1//EN" "http://www.w3.org/Graphics/SVG/1.1/DTD/svg11.dtd">
<!-- Creator: CorelDRAW -->
<svg xmlns="http://www.w3.org/2000/svg" xml:space="preserve" width="48px" height="48px" version="1.1" style="shape-rendering:geometricPrecision; text-rendering:geometricPrecision; image-rendering:optimizeQuality; fill-rule:evenodd; clip-rule:evenodd"
viewBox="0 0 48 48"
 xmlns:xlink="http://www.w3.org/1999/xlink"
 xmlns:xodm="http://www.corel.com/coreldraw/odm/2003">
 <defs>
  <style type="text/css">
   <![CDATA[
    .fil0 {fill:lime}
   ]]>
  </style>
 </defs>
 <g id="Слой_x0020_1">
  <metadata id="CorelCorpID_0Corel-Layer"/>
  <path class="fil0" d="M43.976 35.536l0 -12.335c0,-1.279 -1.047,-2.325 -2.326,-2.325 -1.279,0 -2.325,1.046 -2.325,2.325l0 12.283c-2.429,0.914 -4.157,2.861 -4.157,6.006 0,3.146 2.873,6.416 6.416,6.416 3.543,0 6.415,-3.295 6.415,-6.416 0,-3.121 -1.665,-5.006 -4.023,-5.954zm-35.234 0.008c2.408,0.931 4.118,3.272 4.118,6.013 0,3.558 -2.879,6.442 -6.43,6.442 -3.551,0 -6.429,-2.884 -6.429,-6.442 0,-2.731 1.696,-5.064 4.089,-6.002l0 -23.11c-2.393,-0.938 -4.089,-3.271 -4.089,-6.002 0,-3.558 2.878,-6.442 6.429,-6.442 3.551,0 6.43,2.884 6.43,6.442 0,1.024 -0.239,1.992 -0.664,2.852l8.699 9.11c0.921,-0.51 1.979,-0.8 3.105,-0.8 1.16,0 2.248,0.308 3.187,0.846l8.66 -9.069c-0.452,-0.881 -0.707,-1.88 -0.707,-2.939 0,-3.558 2.879,-6.442 6.43,-6.442 3.551,0 6.429,2.884 6.429,6.442 0,3.558 -2.878,6.442 -6.429,6.442 -0.79,0 -1.547,-0.143 -2.246,-0.404l-9.191 9.626c0.193,0.612 0.297,1.264 0.297,1.94 0,3.558 -2.879,6.442 -6.43,6.442 -3.551,0 -6.43,-2.884 -6.43,-6.442 0,-0.713 0.116,-1.398 0.33,-2.039l-9.158 -9.552 0 23.088z"/>
 </g>
</svg>
